# xmcd
#
# Track frame offsets: 
#        150
#        16298
#        32159
#        51735
#        68090
#        83416
#        99356
#        112755
#        126804
#        139231
#        156598
#        174116
#
# Disc length: 2475 seconds
#
# Revision: 0
# Processed by: cddbd v1.5.1PL0 Copyright (c) Steve Scherf et al.
# Submitted via: ExactAudioCopy v0.95a5
#
DISCID=9609a90c
DTITLE=Hit and Run Bluegrass - Without Maps or Charts
DYEAR=2005
DGENRE=Bluegrass
TTITLE0=Any Day Woman
TTITLE1=Flying In The Wind
TTITLE2=I've Kissed My Last Time
TTITLE3=Wind Moans Under The Door
TTITLE4=Home Is Where I'll Ever Be
TTITLE5=Hardwood Floor
TTITLE6=Got The Keys To The Kingdom
TTITLE7=Lockdown For Your Love
TTITLE8=Single Girl
TTITLE9=Why Does THis Old Town Look Better Now
TTITLE10=Close THe Bar
TTITLE11=Highway Of Regret
EXTD=
EXTT0=
EXTT1=
EXTT2=
EXTT3=
EXTT4=
EXTT5=
EXTT6=
EXTT7=
EXTT8=
EXTT9=
EXTT10=
EXTT11=
PLAYORDER=
